<?xml version="1.0" encoding="UTF-8" standalone="no"?>
<!-- Created with Inkscape (http://www.inkscape.org/) -->

<svg
   width="120mm"
   height="120mm"
   viewBox="0 0 120 120"
   version="1.1"
   id="svg5"
   inkscape:version="1.1.1 (3bf5ae0d25, 2021-09-20)"
   sodipodi:docname="logotipoNuevo.svg"
   inkscape:export-filename="C:\Users\sergi\Desktop\Entrega 3\logotipo.png"
   inkscape:export-xdpi="96"
   inkscape:export-ydpi="96"
   xmlns:inkscape="http://www.inkscape.org/namespaces/inkscape"
   xmlns:sodipodi="http://sodipodi.sourceforge.net/DTD/sodipodi-0.dtd"
   xmlns="http://www.w3.org/2000/svg"
   xmlns:svg="http://www.w3.org/2000/svg">
  <sodipodi:namedview
     id="namedview7"
     pagecolor="#ffffff"
     bordercolor="#666666"
     borderopacity="1.0"
     inkscape:pageshadow="2"
     inkscape:pageopacity="0.0"
     inkscape:pagecheckerboard="0"
     inkscape:document-units="mm"
     showgrid="false"
     inkscape:zoom="0.74118967"
     inkscape:cx="205.7503"
     inkscape:cy="344.71608"
     inkscape:window-width="1920"
     inkscape:window-height="1017"
     inkscape:window-x="1912"
     inkscape:window-y="-8"
     inkscape:window-maximized="1"
     inkscape:current-layer="text19890"
     width="200mm" />
  <defs
     id="defs2">
    <inkscape:perspective
       sodipodi:type="inkscape:persp3d"
       inkscape:vp_x="-89.138671 : -29.528372 : 1"
       inkscape:vp_y="0 : 1291.577 : 0"
       inkscape:vp_z="1069.7904 : -47.217618 : 1"
       inkscape:persp3d-origin="415.27867 : -111.15069 : 1"
       id="perspective21308" />
    <rect
       x="149.75925"
       y="331.89886"
       width="102.53786"
       height="99.839493"
       id="rect8679" />
    <rect
       x="153.80678"
       y="292.77255"
       width="477.61053"
       height="342.69232"
       id="rect4323" />
    <rect
       x="153.80678"
       y="292.77255"
       width="477.61053"
       height="342.69232"
       id="rect4323-9" />
  </defs>
  <g
     inkscape:label="Capa 1"
     inkscape:groupmode="layer"
     id="layer1">
    <text
       xml:space="preserve"
       transform="scale(0.26458333)"
       id="text8677"
       style="font-style:normal;font-weight:normal;font-size:40px;line-height:1.25;font-family:sans-serif;white-space:pre;shape-inside:url(#rect8679);fill:#000000;fill-opacity:1;stroke:none" />
    <g
       sodipodi:type="inkscape:box3d"
       id="g21310"
       style="fill:#6d53a5;fill-opacity:0.995984;stroke:none"
       inkscape:perspectiveID="#perspective21308"
       inkscape:corner0="4.4401514 : 0.49925534 : 0 : 1"
       inkscape:corner7="2.8702819 : 0.21861341 : 0.30759136 : 1">
      <path
         sodipodi:type="inkscape:box3dside"
         id="path21322"
         style="fill:#e9e9ff;fill-rule:evenodd;stroke:none;stroke-width:2.83742;stroke-linejoin:round"
         inkscape:box3dsidetype="11"
         d="M 60.640807,52.487961 116.92165,16.024246 v 86.759604 l -56.280843,12.76724 z"
         points="116.92165,16.024246 116.92165,102.78385 60.640807,115.55109 60.640807,52.487961 " />
      <path
         sodipodi:type="inkscape:box3dside"
         id="path21312"
         style="fill:#353564;fill-rule:evenodd;stroke:none;stroke-width:2.83742;stroke-linejoin:round"
         inkscape:box3dsidetype="6"
         d="m 3.5825244,46.001036 v 66.628784 l 57.0582826,2.92127 V 52.487961 Z"
         points="3.5825244,112.62982 60.640807,115.55109 60.640807,52.487961 3.5825244,46.001036 " />
      <path
         sodipodi:type="inkscape:box3dside"
         id="path21314"
         style="fill:#4d4d9f;fill-rule:evenodd;stroke:none;stroke-width:2.83742;stroke-linejoin:round"
         inkscape:box3dsidetype="5"
         d="M 3.5825244,46.001036 41.192233,4.0081247 116.92165,16.024246 60.640807,52.487961 Z"
         points="41.192233,4.0081247 116.92165,16.024246 60.640807,52.487961 3.5825244,46.001036 " />
      <path
         sodipodi:type="inkscape:box3dside"
         id="path21320"
         style="fill:#afafde;fill-rule:evenodd;stroke:none;stroke-width:2.83742;stroke-linejoin:round"
         inkscape:box3dsidetype="13"
         d="M 3.5825244,112.62982 41.192233,97.66297 116.92165,102.78385 60.640807,115.55109 Z"
         points="41.192233,97.66297 116.92165,102.78385 60.640807,115.55109 3.5825244,112.62982 " />
      <path
         sodipodi:type="inkscape:box3dside"
         id="path21318"
         style="fill:#d7d7ff;fill-rule:evenodd;stroke:none;stroke-width:2.83742;stroke-linejoin:round"
         inkscape:box3dsidetype="14"
         d="M 41.192233,4.0081247 V 97.66297 l 75.729417,5.12088 V 16.024246 Z"
         points="41.192233,97.66297 116.92165,102.78385 116.92165,16.024246 41.192233,4.0081247 " />
      <path
         sodipodi:type="inkscape:box3dside"
         id="path21316"
         style="fill:#8686bf;fill-rule:evenodd;stroke:none;stroke-width:2.83742;stroke-linejoin:round"
         inkscape:box3dsidetype="3"
         d="M 3.5825244,46.001036 41.192233,4.0081247 V 97.66297 L 3.5825244,112.62982 Z"
         points="41.192233,4.0081247 41.192233,97.66297 3.5825244,112.62982 3.5825244,46.001036 " />
    </g>
    <g
       aria-label="S"
       transform="scale(1.0116117,0.98852159)"
       id="text19890"
       style="font-size:135.466px;line-height:1.25;font-family:'Colonna MT';-inkscape-font-specification:'Colonna MT';fill:#c52283;stroke-width:3.3866">
      <path
         d="m 55.400101,67.938942 h 1.521347 q 0.463019,8.466625 6.812988,13.956702 6.217678,5.423932 14.28743,5.423932 6.217678,0 10.120263,-3.505712 3.902585,-3.505712 3.902585,-8.40048 0,-5.159349 -3.770294,-8.003606 -3.638003,-2.778112 -14.353576,-6.283824 -8.598916,-2.844256 -12.236919,-4.696331 -4.233313,-2.182802 -6.614551,-5.88695 -2.579675,-3.770294 -2.579675,-8.466625 0,-5.225496 3.505712,-10.252554 -0.793746,2.579675 -0.793746,4.497894 0,5.15935 2.447384,9.061935 2.513529,4.034876 6.217678,6.085387 3.704148,2.116656 12.36921,4.828622 11.310882,3.439567 16.337941,7.606734 4.828622,4.034876 4.828622,10.847863 0,6.680697 -5.027059,12.104629 -5.093204,5.490077 -15.213467,5.490077 -4.101022,0 -11.377028,-1.521347 -6.349968,-1.32291 -9.524953,-1.389055 l -0.463018,-0.529165 q 0.06614,-1.124473 0.06614,-2.910402 0,-2.116656 -0.396873,-6.548405 -0.330728,-4.43175 -0.330728,-6.614551 0,-2.844257 0.264582,-4.894768 z M 102.09883,40.290119 h -1.38905 q -0.0661,-7.672879 -6.085391,-11.377028 -5.886951,-3.638003 -14.28743,-3.638003 -6.680697,0 -10.980155,2.844257 -4.365604,2.844257 -4.365604,6.812988 0,4.233312 3.439567,6.680696 3.571857,2.645821 14.088993,6.283824 9.789536,3.373421 13.692121,5.490077 4.167169,2.315093 6.945279,6.614551 2.77811,4.431749 2.77811,9.855681 0,8.268188 -6.085386,12.96452 2.248946,-3.108839 2.248946,-8.731208 0,-5.29164 -2.447383,-9.392662 -2.579675,-4.167167 -6.349969,-6.614551 -3.836439,-2.513529 -12.501501,-5.357786 -13.030665,-4.299458 -16.999396,-7.342152 -3.96873,-3.108839 -3.96873,-9.657244 0,-7.540588 6.085386,-11.840046 6.085387,-4.167167 17.263978,-4.167167 7.606734,0 18.586885,2.64582 v 0.463018 l 0.13229,2.51353 q 0,1.984365 0.1323,4.762477 0.19843,3.37342 0.19843,5.953095 0,1.719784 -0.13229,4.233313 z"
         id="path11056"
         style="stroke-width:3.38699999;stroke-miterlimit:4;stroke-dasharray:none" />
    </g>
  </g>
</svg>
